<svg xmlns="http://www.w3.org/2000/svg" xmlns:xlink="http://www.w3.org/1999/xlink" width="500" zoomAndPan="magnify" viewBox="0 0 375 374.999991" height="500" preserveAspectRatio="xMidYMid meet" version="1.0"><defs><g/><clipPath id="d31dcd0172"><path d="M 103 10.507812 L 375 10.507812 L 375 364.507812 L 103 364.507812 Z M 103 10.507812 " clip-rule="nonzero"/></clipPath></defs><path fill="#5ab334" d="M 187.1875 177.609375 C 197.671875 182.222656 234.582031 164.976562 234.582031 164.976562 L 227.746094 160.214844 C 227.746094 160.214844 204.808594 169.734375 198.839844 168.011719 C 193.449219 166.460938 205.765625 154.238281 209.359375 147.835938 C 211.417969 144.164062 208.507812 140.285156 201.28125 139.292969 C 178.144531 136.105469 148.113281 150.007812 138.125 174.589844 C 132.625 188.136719 128.570312 213.085938 146.011719 221.011719 C 157.34375 226.164062 188.324219 223 188.324219 223 L 175.316406 256.726562 C 173.851562 260.871094 181.359375 263.976562 184.21875 263.910156 C 189.613281 263.789062 198.324219 261.621094 204.722656 258.136719 C 211.117188 254.648438 203.4375 248.160156 200.804688 250.960938 C 198.171875 253.761719 190.007812 253.398438 190.007812 253.398438 C 190.007812 253.398438 216.714844 216.941406 209.285156 204.089844 C 205.441406 197.453125 181.589844 205.316406 173.277344 197.003906 C 165.402344 189.128906 173.492188 162.886719 182.84375 162.960938 C 187.566406 162.996094 181.710938 175.195312 187.1875 177.609375 " fill-opacity="1" fill-rule="nonzero"/><path fill="#5ab334" d="M 196.988281 125.386719 C 200.34375 133.328125 208.199219 138.898438 217.351562 138.898438 C 226.515625 138.898438 234.367188 133.328125 237.71875 125.386719 L 196.988281 125.386719 " fill-opacity="1" fill-rule="nonzero"/><path fill="#5ab334" d="M 253.59375 116.457031 C 246.644531 116.457031 240.167969 112.703125 236.949219 106.546875 C 233.113281 99.222656 225.296875 94.316406 216.371094 94.703125 C 205.269531 95.183594 196.152344 103.992188 195.3125 115.074219 C 195.097656 117.910156 195.429688 120.640625 196.191406 123.179688 L 253.480469 123.179688 C 255.269531 123.179688 256.832031 121.824219 256.945312 120.039062 C 257.074219 118.085938 255.523438 116.457031 253.59375 116.457031 " fill-opacity="1" fill-rule="nonzero"/><path fill="#5ab334" d="M 235.246094 169.210938 C 235.246094 169.210938 242.203125 204.84375 252.132812 209.25 C 265.152344 215.035156 286.242188 197.355469 308.117188 219.867188 C 308.117188 219.867188 263 225.28125 229.503906 263.410156 C 227.050781 254.226562 234.128906 237.683594 234.128906 237.683594 C 222.238281 251.175781 219.730469 269.050781 212.566406 274.957031 C 195.332031 289.167969 139.152344 290.972656 139.152344 290.972656 C 117.988281 287.1875 127.453125 241.367188 54.074219 278.4375 C 54.074219 278.4375 57.808594 254.878906 77.1875 237.625 C 80.105469 235.027344 69.714844 234.0625 60.894531 234.0625 C 52.011719 234.0625 50.695312 227.136719 55.199219 225.519531 C 68.722656 220.664062 130.277344 217.984375 152.773438 222.160156 C 156.820312 222.910156 167.171875 224.128906 174.519531 224.957031 C 180.554688 225.628906 182.273438 233.578125 177.066406 236.707031 C 176.980469 236.753906 176.894531 236.808594 176.804688 236.859375 C 173.65625 238.695312 163.410156 244.730469 163.410156 244.730469 C 163.410156 244.730469 169.78125 253.261719 172.398438 255.636719 C 185.234375 267.265625 202.734375 256.285156 206.949219 248.539062 C 216.164062 231.59375 217.503906 172.105469 217.503906 172.105469 C 215.214844 160.976562 222.386719 150.101562 233.511719 147.816406 L 244.734375 145.511719 C 251.113281 144.203125 257.261719 148.582031 258.097656 155.039062 C 258.902344 161.207031 254.523438 166.84375 248.355469 167.605469 L 235.246094 169.210938 " fill-opacity="1" fill-rule="nonzero"/><path fill="#5ab334" d="M 237.292969 287.78125 L 227.734375 288.730469 C 226.601562 288.84375 225.597656 288.019531 225.484375 286.890625 L 225.355469 285.574219 C 225.242188 284.445312 226.066406 283.4375 227.199219 283.324219 L 236.753906 282.375 C 237.886719 282.261719 238.894531 283.085938 239.003906 284.21875 L 239.136719 285.53125 C 239.246094 286.664062 238.421875 287.667969 237.292969 287.78125 " fill-opacity="1" fill-rule="nonzero"/><path fill="#5ab334" d="M 43.824219 305.105469 L 34.265625 306.054688 C 33.136719 306.167969 32.128906 305.34375 32.015625 304.214844 L 31.886719 302.898438 C 31.773438 301.769531 32.597656 300.761719 33.730469 300.648438 L 43.285156 299.699219 C 44.417969 299.585938 45.421875 300.410156 45.539062 301.542969 L 45.667969 302.855469 C 45.777344 303.984375 44.953125 304.992188 43.824219 305.105469 " fill-opacity="1" fill-rule="nonzero"/><path fill="#5ab334" d="M 279.820312 264.914062 C 273.023438 266.308594 266.382812 261.933594 264.988281 255.136719 C 263.589844 248.332031 267.96875 241.695312 274.765625 240.292969 C 281.5625 238.902344 288.207031 243.277344 289.601562 250.074219 C 290.996094 256.875 286.617188 263.515625 279.820312 264.914062 Z M 309.695312 243.777344 C 308.183594 236.433594 304.378906 230.152344 299.1875 225.519531 C 284.019531 228.398438 262.96875 234.710938 243.40625 248.539062 C 243.234375 251.398438 243.433594 254.328125 244.035156 257.265625 C 244.375 258.902344 244.828125 260.480469 245.382812 262.003906 L 262.5 260.304688 C 263.996094 260.152344 265.328125 261.242188 265.476562 262.734375 C 265.625 264.230469 264.535156 265.558594 263.039062 265.710938 L 244.703125 267.53125 L 241.683594 267.832031 C 240.191406 267.980469 239.101562 269.308594 239.25 270.800781 C 239.402344 272.296875 240.730469 273.386719 242.222656 273.238281 L 251.410156 272.324219 L 277.277344 269.753906 C 278.769531 269.609375 280.097656 270.695312 280.25 272.191406 C 280.394531 273.683594 279.308594 275.015625 277.8125 275.160156 L 248.203125 278.105469 L 245.21875 278.402344 C 243.730469 278.546875 242.636719 279.882812 242.785156 281.375 C 242.933594 282.867188 244.265625 283.957031 245.757812 283.808594 L 265.058594 281.890625 C 270.785156 284.050781 277.167969 284.675781 283.605469 283.351562 C 301.738281 279.628906 313.414062 261.910156 309.695312 243.777344 " fill-opacity="1" fill-rule="nonzero"/><path fill="#5ab334" d="M 101.820312 301.476562 C 95.023438 302.871094 88.382812 298.496094 86.984375 291.699219 C 85.589844 284.898438 89.96875 278.257812 96.765625 276.859375 C 103.5625 275.464844 110.203125 279.839844 111.601562 286.636719 C 112.996094 293.441406 108.617188 300.078125 101.820312 301.476562 Z M 73.777344 264.863281 C 67.472656 271.992188 64.265625 281.722656 65.675781 291.734375 L 73.226562 290.980469 C 74.722656 290.832031 76.050781 291.925781 76.199219 293.417969 C 76.347656 294.910156 75.257812 296.242188 73.765625 296.390625 L 52.410156 298.511719 C 50.917969 298.660156 49.828125 299.992188 49.976562 301.480469 C 50.125 302.976562 51.453125 304.070312 52.949219 303.917969 L 69.007812 302.324219 L 88 300.433594 C 89.492188 300.289062 90.824219 301.378906 90.972656 302.871094 C 91.121094 304.367188 90.03125 305.695312 88.539062 305.839844 L 67.542969 307.929688 L 55.945312 309.082031 C 54.453125 309.230469 53.363281 310.5625 53.511719 312.050781 C 53.660156 313.546875 54.988281 314.636719 56.480469 314.488281 L 76.964844 312.453125 C 84.566406 319.007812 95.015625 322.089844 105.609375 319.917969 C 119.179688 317.128906 129.136719 306.496094 131.722656 293.71875 C 119.238281 283.515625 124.566406 254.261719 73.777344 264.863281 " fill-opacity="1" fill-rule="nonzero"/><path fill="#5ab334" d="M 17.242188 221.300781 C 17.550781 223.4375 19.53125 224.914062 21.664062 224.605469 L 125.949219 209.539062 C 128.082031 209.230469 129.5625 207.25 129.253906 205.117188 C 128.945312 202.984375 126.96875 201.5 124.832031 201.8125 L 20.546875 216.882812 C 18.414062 217.1875 16.933594 219.167969 17.242188 221.300781 Z M 30.265625 206.429688 L 31.023438 211.683594 L 113.3125 199.789062 L 112.554688 194.542969 C 109.472656 173.210938 90.707031 158.015625 69.621094 158.949219 C 70.722656 157.53125 71.191406 155.625 70.671875 153.695312 C 69.960938 151.039062 67.449219 149.179688 64.703125 149.269531 C 61.058594 149.390625 58.429688 152.628906 58.933594 156.132812 C 59.179688 157.808594 60.09375 159.222656 61.367188 160.140625 C 51.875 162.492188 43.84375 168.023438 38.261719 175.40625 L 48.425781 173.9375 C 50.160156 173.6875 51.867188 174.804688 52.171875 176.535156 C 52.484375 178.320312 51.257812 180.003906 49.472656 180.261719 L 14.597656 185.300781 C 12.847656 185.554688 11.632812 187.179688 11.886719 188.929688 C 12.140625 190.683594 13.765625 191.894531 15.515625 191.644531 L 41.695312 187.863281 C 43.429688 187.609375 45.140625 188.726562 45.441406 190.457031 C 45.753906 192.246094 44.527344 193.929688 42.742188 194.183594 L 3.0625 199.917969 C 1.3125 200.171875 0.0976562 201.796875 0.347656 203.546875 C 0.601562 205.300781 2.226562 206.515625 3.976562 206.261719 L 29.894531 202.515625 C 29.957031 203.8125 30.078125 205.117188 30.265625 206.429688 " fill-opacity="1" fill-rule="nonzero"/><g clip-path="url(#d31dcd0172)"><path fill="#f68712" d="M 197.941406 10.507812 C 163.234375 10.507812 130.867188 20.5 103.546875 37.761719 C 126.128906 26.417969 151.628906 20.027344 178.621094 20.027344 C 271.113281 20.027344 346.089844 95.007812 346.089844 187.507812 C 346.089844 280.003906 271.113281 354.984375 178.621094 354.984375 C 151.628906 354.984375 126.128906 348.597656 103.546875 337.253906 C 130.867188 354.511719 163.234375 364.507812 197.941406 364.507812 C 295.683594 364.507812 374.925781 285.261719 374.925781 187.507812 C 374.925781 89.753906 295.683594 10.507812 197.941406 10.507812 " fill-opacity="1" fill-rule="nonzero"/></g><g fill="#006c3f" fill-opacity="1"><g transform="translate(80.874631, 95.462524)"><g><path d="M 17.9375 -23.171875 C 20.921875 -24.828125 22.390625 -27.875 21.53125 -31.3125 C 20.359375 -35.890625 15.671875 -38.625 7.421875 -36.53125 L -5.265625 -33.296875 C -5.921875 -33.140625 -6.296875 -32.703125 -6.15625 -32.15625 L -6.109375 -31.96875 C -5.796875 -30.6875 -3.8125 -30.59375 -3.28125 -28.484375 L 2.4375 -5.9375 C 2.96875 -3.828125 1.28125 -2.796875 1.609375 -1.53125 L 1.65625 -1.34375 C 1.796875 -0.78125 2.328125 -0.59375 2.984375 -0.75 L 15.53125 -3.9375 C 26.125 -6.625 29.9375 -11.59375 28.5625 -17 C 27.453125 -21.40625 23.390625 -23.796875 17.9375 -23.171875 Z M 5.125 -29.984375 C 4.671875 -31.828125 5.5 -32.625 6.671875 -32.921875 L 7.96875 -33.25 C 11.078125 -34.046875 13.71875 -32.265625 14.71875 -28.328125 C 15.375 -25.703125 14.296875 -23.640625 11.96875 -23.046875 L 9.6875 -22.46875 C 8.21875 -22.09375 6.984375 -22.703125 6.59375 -24.203125 Z M 16.78125 -7.671875 L 14.59375 -7.109375 C 12.484375 -6.578125 10.71875 -7.9375 10.171875 -10.140625 L 8.015625 -18.609375 L 9.9375 -19.09375 C 15.4375 -20.5 19.296875 -17 20.15625 -13.609375 C 20.890625 -10.765625 19.71875 -8.40625 16.78125 -7.671875 Z M 16.78125 -7.671875 "/></g></g></g><g fill="#006c3f" fill-opacity="1"><g transform="translate(111.854757, 87.879022)"><g><path d="M 2.765625 -26.4375 C 5.9375 -27.03125 7.671875 -29.46875 7.203125 -32.0625 C 6.703125 -34.71875 4.21875 -36.328125 1.046875 -35.734375 C -2.171875 -35.140625 -3.9375 -32.75 -3.4375 -30.09375 C -2.96875 -27.5 -0.453125 -25.84375 2.765625 -26.4375 Z M 2.40625 -0.453125 L 12.421875 -2.296875 C 13.125 -2.421875 13.515625 -2.84375 13.40625 -3.40625 L 13.375 -3.59375 C 13.125 -4.921875 10.953125 -5.109375 10.5625 -7.234375 L 7.515625 -23.71875 C 7.34375 -24.59375 6.40625 -25.171875 5.21875 -24.296875 L -1.171875 -19.546875 C -1.75 -19.109375 -2.109375 -18.796875 -2.015625 -18.265625 L -1.984375 -18.09375 C -1.78125 -16.984375 0.203125 -16.671875 0.59375 -14.53125 L 2.234375 -5.6875 C 2.625 -3.5625 0.859375 -2.640625 1.109375 -1.3125 L 1.140625 -1.125 C 1.25 -0.5625 1.71875 -0.3125 2.40625 -0.453125 Z M 2.40625 -0.453125 "/></g></g></g><g fill="#006c3f" fill-opacity="1"><g transform="translate(125.582514, 85.274197)"><g><path d="M 10.96875 -1.03125 C 16.078125 -1.71875 18.25 -5.890625 17.75 -9.5 C 17.625 -10.390625 16.46875 -10.515625 15.921875 -9.578125 C 15.515625 -8.671875 14.90625 -7.671875 13.078125 -7.421875 C 11.890625 -7.265625 10.828125 -8.078125 10.609375 -9.671875 L 9.078125 -20.90625 L 13.90625 -21.5625 C 14.515625 -21.640625 14.90625 -22.171875 14.8125 -22.796875 L 14.6875 -23.8125 C 14.59375 -24.4375 14.078125 -24.84375 13.46875 -24.765625 L 8.640625 -24.109375 L 8 -28.84375 C 7.890625 -29.578125 7.296875 -29.96875 6.5625 -29.875 L 5.46875 -29.71875 C 4.875 -29.640625 4.421875 -29.09375 4.390625 -28.34375 C 4.171875 -25.390625 2.171875 -23.21875 -0.6875 -22.828125 L -1.578125 -22.703125 C -2.234375 -22.609375 -2.59375 -22.140625 -2.5 -21.46875 L -2.375 -20.453125 C -2.28125 -19.828125 -1.75 -19.421875 -1.140625 -19.5 L 0.640625 -19.75 L 2.15625 -8.65625 C 2.9375 -2.96875 6.34375 -0.390625 10.96875 -1.03125 Z M 10.96875 -1.03125 "/></g></g></g><g fill="#006c3f" fill-opacity="1"><g transform="translate(143.593308, 82.715746)"><g><path d="M 20.265625 -9.0625 C 19.5 -7.875 17.734375 -6.78125 15.375 -6.59375 C 12.734375 -6.390625 10.546875 -7.703125 9.15625 -9.953125 C 10.5625 -10.015625 12.203125 -10.234375 13.828125 -10.640625 C 18.203125 -11.703125 21.125 -14.671875 20.875 -17.96875 C 20.546875 -22.125 16.5625 -24.578125 10.953125 -24.09375 C 4.640625 -23.5625 -0.375 -18.5625 0.15625 -11.546875 C 0.71875 -4.40625 6.015625 0 13 -0.53125 C 19.78125 -1.046875 22.125 -5.921875 22.0625 -8.53125 C 22.03125 -9.578125 20.875 -9.765625 20.265625 -9.0625 Z M 10.15625 -21.515625 C 11.703125 -21.640625 13 -20.0625 13.21875 -18.015625 C 13.46875 -14.75 12.453125 -13.203125 10.40625 -12.671875 C 9.796875 -12.53125 8.953125 -12.421875 8.046875 -12.390625 C 7.6875 -13.5 7.453125 -14.703125 7.34375 -15.984375 C 7.109375 -19.09375 8.21875 -21.359375 10.15625 -21.515625 Z M 10.15625 -21.515625 "/></g></g></g><g fill="#006c3f" fill-opacity="1"><g transform="translate(166.461687, 81.10017)"><g/></g></g><g fill="#006c3f" fill-opacity="1"><g transform="translate(174.858726, 80.459585)"><g><path d="M 30.75 -4 C 30.6875 -8.296875 28.9375 -11.796875 25.40625 -14.109375 C 28.625 -16.03125 30.65625 -19.1875 30.734375 -22.0625 C 30.921875 -29.15625 25.34375 -32.890625 16.703125 -33.125 L 3.984375 -33.484375 C 3.3125 -33.5 2.84375 -33.1875 2.828125 -32.625 L 2.828125 -32.4375 C 2.78125 -31.109375 4.65625 -30.46875 4.609375 -28.296875 L 3.96875 -5.046875 C 3.90625 -2.875 2 -2.359375 1.96875 -1.046875 L 1.96875 -0.859375 C 1.953125 -0.28125 2.40625 0.0625 3.078125 0.078125 L 13.484375 0.359375 C 14.140625 0.390625 14.625 0.0625 14.640625 -0.515625 L 14.640625 -0.703125 C 14.671875 -2.015625 12.5625 -2.640625 12.625 -4.8125 L 12.828125 -12.421875 L 18.078125 -12.328125 C 20.875 -10.734375 22.046875 -7.546875 22 -3.859375 C 21.953125 -2.15625 20.5 -1.84375 20.46875 -0.53125 L 20.46875 -0.34375 C 20.453125 0.234375 20.84375 0.5625 21.546875 0.59375 L 31.53125 0.859375 C 32.1875 0.875 32.6875 0.5625 32.703125 -0.015625 L 32.703125 -0.203125 C 32.734375 -1.515625 30.8125 -2.1875 30.75 -4 Z M 15.953125 -15.5625 C 13.96875 -15.609375 12.953125 -16.6875 13.015625 -19.421875 L 13.234375 -27.453125 C 13.28125 -28.875 14.03125 -29.890625 15.109375 -29.859375 L 15.96875 -29.84375 C 18.84375 -29.765625 21.90625 -26.5 21.765625 -21.40625 C 21.65625 -17.34375 19.6875 -15.453125 17.28125 -15.53125 Z M 15.953125 -15.5625 "/></g></g></g><g fill="#006c3f" fill-opacity="1"><g transform="translate(206.75418, 81.380553)"><g><path d="M 25.765625 -2.34375 L 27.65625 -19.03125 C 27.75 -19.875 27.078125 -20.234375 25.6875 -20.1875 L 18.578125 -20.046875 C 17.921875 -20.015625 17.4375 -19.59375 17.390625 -19.09375 L 17.359375 -18.90625 C 17.234375 -17.71875 19.046875 -16.9375 18.796875 -14.734375 L 17.75 -5.421875 C 17.421875 -2.5625 15.859375 -0.890625 14.109375 -1.078125 C 12.046875 -1.3125 11.21875 -2.859375 11.703125 -6.734375 L 13.421875 -20.625 C 13.515625 -21.46875 12.703125 -21.84375 11.296875 -21.8125 L 4.203125 -21.65625 C 3.546875 -21.625 3.046875 -21.203125 3 -20.703125 L 2.96875 -20.515625 C 2.84375 -19.328125 4.65625 -18.5625 4.40625 -16.359375 L 3.515625 -8.5 C 2.84375 -2.5 6.53125 1.203125 11.28125 1.75 C 14.46875 2.109375 16.796875 1.328125 18.234375 -0.421875 C 18.234375 1.625 19.421875 2.46875 22.34375 2.796875 C 25.359375 3.140625 27.21875 3.0625 27.359375 1.796875 C 27.578125 -0.140625 25.34375 1.46875 25.765625 -2.34375 Z M 25.765625 -2.34375 "/></g></g></g><g fill="#006c3f" fill-opacity="1"><g transform="translate(233.723862, 84.47414)"><g><path d="M 11.234375 2.515625 C 17.6875 3.703125 21.90625 1.421875 22.625 -2.453125 C 24.203125 -11.015625 11.703125 -9.859375 12.875 -16.21875 C 13.125 -17.578125 14.09375 -18.75 15.53125 -18.484375 C 18.75 -17.890625 16.09375 -11.875 20.609375 -11.046875 C 22.328125 -10.71875 23.9375 -11.6875 24.25 -13.3125 C 24.796875 -16.34375 21.421875 -19.59375 15.53125 -20.6875 C 9.703125 -21.765625 5.15625 -19.578125 4.390625 -15.4375 C 2.71875 -6.421875 15.71875 -7.734375 14.578125 -1.625 C 14.234375 0.234375 12.984375 0.71875 11.609375 0.46875 C 7.734375 -0.25 10.5 -6.328125 5.859375 -7.1875 C 3.984375 -7.53125 2.390625 -6.90625 2 -4.828125 C 1.40625 -1.5625 5.359375 1.421875 11.234375 2.515625 Z M 11.234375 2.515625 "/></g></g></g><g fill="#006c3f" fill-opacity="1"><g transform="translate(255.230929, 88.305954)"><g><path d="M 26.859375 1.609375 L 28.40625 -6.796875 C 29.6875 -13.84375 26.0625 -17.171875 22.078125 -18.203125 C 19.734375 -18.8125 17.625 -18.546875 15.921875 -17.515625 L 19.375 -30.796875 C 19.640625 -31.828125 19.078125 -32.390625 17.890625 -32.203125 L 9.828125 -30.859375 C 9.125 -30.75 8.578125 -30.40625 8.4375 -29.859375 L 8.40625 -29.71875 C 8.078125 -28.4375 10.265625 -27.640625 9.703125 -25.46875 L 4.1875 -4.234375 C 3.640625 -2.140625 1.484375 -2.140625 1.15625 -0.828125 L 1.109375 -0.640625 C 0.953125 -0.078125 1.28125 0.328125 1.921875 0.5 L 11.859375 3.078125 C 12.484375 3.25 13.03125 3.0625 13.1875 2.5 L 13.234375 2.3125 C 13.5625 1 11.640625 -0.0625 12.1875 -2.15625 L 14.78125 -12.140625 C 15.46875 -14.796875 16.90625 -16.328125 18.921875 -15.796875 C 21.015625 -15.25 21.4375 -13.328125 20.59375 -9.109375 L 18.84375 -0.484375 C 18.390625 1.640625 16.484375 1.75 16.15625 3.0625 L 16.109375 3.25 C 15.953125 3.8125 16.296875 4.234375 16.984375 4.40625 L 26.09375 6.78125 C 26.78125 6.953125 27.265625 6.75 27.421875 6.1875 L 27.46875 6 C 27.796875 4.6875 26.484375 3.75 26.859375 1.609375 Z M 26.859375 1.609375 "/></g></g></g></svg>