<?xml version="1.0" encoding="UTF-8"?>
<svg version="1.1" xmlns="http://www.w3.org/2000/svg" width="1000" height="1000">
<path d="M0 0 C1.1339621 -0.01058945 1.1339621 -0.01058945 2.29083252 -0.02139282 C44.16558037 -0.32355738 86.86080909 8.32988414 119.828125 36.203125 C120.88696146 37.06380492 121.94690887 37.92311944 123.0078125 38.78125 C137.80737484 50.88124636 150.31746243 64.4393078 160.703125 80.515625 C161.08009521 81.09787842 161.45706543 81.68013184 161.84545898 82.2800293 C163.92092835 85.55750434 165.54810164 88.83590907 167.078125 92.390625 C168.66767899 95.39311586 169.43820952 96.06750222 172.703125 97.203125 C174.9745618 97.66582509 177.25392731 98.09101569 179.5390625 98.48046875 C184.54032499 99.57932096 187.92791354 101.98756604 191.828125 105.203125 C192.43011719 105.65945313 193.03210938 106.11578125 193.65234375 106.5859375 C201.75368556 113.54034778 207.80114797 126.64714802 208.828125 137.203125 C208.95832031 138.39292969 209.08851563 139.58273437 209.22265625 140.80859375 C210.38963677 153.19306141 209.97391783 166.05592835 203.828125 177.203125 C201.390625 180.140625 201.390625 180.140625 198.828125 182.203125 C198.10625 182.80125 197.384375 183.399375 196.640625 184.015625 C191.53129809 186.17289636 186.57652375 186.08516925 181.30859375 184.39453125 C165.37634061 177.14347431 156.70811453 162.52426264 149.828125 147.203125 C145.671006 135.68356628 145.89519222 124.74715848 149.828125 113.203125 C150.7017896 111.89636171 151.59578135 110.60280449 152.515625 109.328125 C153.65545905 107.45452648 153.65545905 107.45452648 153.828125 105.203125 C151.94788387 100.03412289 148.96511828 95.6741258 145.828125 91.203125 C145.14459961 90.21868408 145.14459961 90.21868408 144.44726562 89.21435547 C118.27689965 51.9712174 81.39954535 27.79340103 36.50805664 19.62426758 C3.51361383 14.43929775 -31.58146881 19.61733853 -61.171875 35.203125 C-61.83171387 35.54746582 -62.49155273 35.89180664 -63.17138672 36.24658203 C-76.55898798 43.30388286 -88.15597012 51.77675631 -99.171875 62.203125 C-100.11804688 63.07324219 -101.06421875 63.94335938 -102.0390625 64.83984375 C-109.86806492 72.20967089 -116.07728316 80.44105521 -121.98754883 89.40820312 C-122.99282717 90.93176659 -124.03909389 92.42815981 -125.09375 93.91796875 C-126.40270591 96.13656622 -126.40270591 96.13656622 -125.80859375 98.4921875 C-125.49535156 99.26304687 -125.18210937 100.03390625 -124.859375 100.828125 C-118.72025301 119.03102382 -130.7076661 138.8717434 -137.46630859 155.49658203 C-138.93750976 159.11659562 -140.4008798 162.739705 -141.86328125 166.36328125 C-142.79381879 168.66164141 -143.72479198 170.95982524 -144.65625 173.2578125 C-145.09475281 174.34303192 -145.53325562 175.42825134 -145.98504639 176.5463562 C-146.59137909 178.03523849 -146.59137909 178.03523849 -147.20996094 179.55419922 C-147.7436026 180.86866531 -147.7436026 180.86866531 -148.2880249 182.20968628 C-149.171875 184.203125 -149.171875 184.203125 -150.171875 185.203125 C-152.671875 185.328125 -152.671875 185.328125 -155.171875 185.203125 C-155.501875 184.873125 -155.831875 184.543125 -156.171875 184.203125 C-155.80796675 177.43152034 -153.71493536 171.92674516 -151.1015625 165.71875 C-150.2799248 163.71224905 -149.45831092 161.70573835 -148.63671875 159.69921875 C-147.33815338 156.56204658 -146.03579286 153.4264793 -144.73193359 150.29150391 C-143.4709004 147.25013276 -142.22329315 144.20350579 -140.9765625 141.15625 C-140.38293411 139.74838226 -140.38293411 139.74838226 -139.77731323 138.31207275 C-139.42009186 137.43726257 -139.06287048 136.56245239 -138.69482422 135.66113281 C-138.21636551 134.51152069 -138.21636551 134.51152069 -137.72824097 133.33868408 C-137.09387037 130.90371147 -137.35885027 129.55453109 -138.171875 127.203125 C-139.98845143 131.55559956 -141.80024505 135.91005095 -143.609375 140.265625 C-143.87965515 140.91584625 -144.1499353 141.5660675 -144.42840576 142.23599243 C-148.56913726 152.20737131 -152.58487285 162.21862019 -156.40405273 172.31860352 C-156.91174194 173.64396118 -156.91174194 173.64396118 -157.4296875 174.99609375 C-157.86498779 176.14887817 -157.86498779 176.14887817 -158.30908203 177.32495117 C-159.171875 179.203125 -159.171875 179.203125 -161.171875 181.203125 C-163.796875 180.828125 -163.796875 180.828125 -166.171875 180.203125 C-167.46514503 176.61111238 -166.87943229 174.68778711 -165.44946289 171.20678711 C-165.04897232 170.21573471 -164.64848175 169.22468231 -164.2358551 168.20359802 C-163.79321823 167.13996536 -163.35058136 166.0763327 -162.89453125 164.98046875 C-162.4491954 163.88344131 -162.00385956 162.78641388 -161.54502869 161.65614319 C-160.11867292 158.14656735 -158.67746407 154.64334992 -157.234375 151.140625 C-155.79694209 147.63353824 -154.36274112 144.12520825 -152.93443298 140.61439514 C-152.04437452 138.42845911 -151.1486566 136.24481751 -150.24684143 134.06370544 C-149.8431987 133.07580521 -149.43955597 132.08790497 -149.02368164 131.07006836 C-148.48621056 129.7657914 -148.48621056 129.7657914 -147.93788147 128.43516541 C-147.0095734 126.12350389 -147.0095734 126.12350389 -147.171875 123.203125 C-147.831875 123.203125 -148.491875 123.203125 -149.171875 123.203125 C-149.85963013 124.92644043 -149.85963013 124.92644043 -150.5612793 126.68457031 C-152.28433032 131.00133921 -154.00857416 135.31763086 -155.7331543 139.63378906 C-156.47533503 141.49173468 -157.21720454 143.34980466 -157.95874023 145.20800781 C-160.04961576 150.44718074 -162.14547589 155.68429013 -164.25189209 160.91723633 C-164.83253371 162.35996107 -165.41214195 163.80310253 -165.99029541 165.24682617 C-166.67700982 166.95836261 -167.37134755 168.66683517 -168.06640625 170.375 C-168.4322583 171.27831055 -168.79811035 172.18162109 -169.17504883 173.11230469 C-170.171875 175.203125 -170.171875 175.203125 -172.171875 177.203125 C-175.70758929 176.66741071 -175.70758929 176.66741071 -177.171875 175.203125 C-176.76589339 169.37595421 -175.44718183 164.67327134 -173.15234375 159.3359375 C-172.85250076 158.61630829 -172.55265778 157.89667908 -172.24372864 157.15524292 C-171.29153179 154.87552288 -170.32589439 152.60180441 -169.359375 150.328125 C-168.72237761 148.81158808 -168.08630237 147.29466348 -167.45117188 145.77734375 C-166.23498722 142.87472429 -165.01764374 139.97259969 -163.79833984 137.07128906 C-163.52068787 136.41020142 -163.24303589 135.74911377 -162.95697021 135.06799316 C-162.25160501 133.39251088 -161.54139305 131.71907101 -160.83056641 130.04589844 C-160.46495605 129.16708008 -160.0993457 128.28826172 -159.72265625 127.3828125 C-159.41626221 126.65562012 -159.10986816 125.92842773 -158.79418945 125.17919922 C-157.97162088 122.91253703 -157.97162088 122.91253703 -158.171875 119.203125 C-158.831875 118.873125 -159.491875 118.543125 -160.171875 118.203125 C-160.42615768 118.9916687 -160.42615768 118.9916687 -160.68557739 119.79614258 C-163.7041911 129.01828085 -167.26275048 138.02574395 -170.81396484 147.05322266 C-171.64029651 149.16437735 -172.45858296 151.27869764 -173.26904297 153.39599609 C-174.44439874 156.46442792 -175.64498106 159.52185985 -176.8515625 162.578125 C-177.38932816 164.00451294 -177.38932816 164.00451294 -177.93795776 165.4597168 C-178.28827057 166.33152588 -178.63858337 167.20333496 -178.99951172 168.1015625 C-179.44893631 169.25664307 -179.44893631 169.25664307 -179.90744019 170.43505859 C-181.171875 172.203125 -181.171875 172.203125 -183.68264771 173.08447266 C-184.91481522 173.14320557 -184.91481522 173.14320557 -186.171875 173.203125 C-186.831875 172.543125 -187.491875 171.883125 -188.171875 171.203125 C-188.00321789 164.16336522 -184.86241197 157.80493214 -182.25390625 151.3671875 C-181.753656 150.12095426 -181.25380035 148.87456255 -180.75431824 147.62802124 C-179.7078953 145.02200639 -178.6556385 142.41844334 -177.59936523 139.81640625 C-176.25690388 136.50758974 -174.93081247 133.19249648 -173.60933399 129.87525368 C-172.58101168 127.3001334 -171.54305226 124.72897844 -170.50238609 122.15882492 C-169.77333745 120.35282256 -169.05290668 118.54334885 -168.3327179 116.73379517 C-164.58199371 107.55471873 -160.5538756 98.95547835 -152.171875 93.203125 C-150.71595875 92.69612995 -149.25741189 92.19665119 -147.796875 91.703125 C-142.18429864 89.3700173 -140.12347718 84.84496984 -137.2578125 79.7734375 C-131.20327542 69.11861101 -122.56760332 60.03399777 -114.171875 51.203125 C-113.553125 50.51992188 -112.934375 49.83671875 -112.296875 49.1328125 C-84.96037856 19.9657471 -39.90169295 0.24923587 0 0 Z " fill="#A4C538" transform="translate(488.171875,322.796875)"/>
<path d="M0 0 C3.43128515 0.8840969 4.90384132 2.89322855 7.16796875 5.55859375 C8.49475966 7.86330923 9.69647182 10.11362508 10.85546875 12.49609375 C29.09631661 48.13651088 62.29500334 74.62278862 100.0234375 87.21875 C114.42032656 91.81829728 129.03425203 94.8882412 144.16796875 95.55859375 C145.15925781 95.61144531 146.15054688 95.66429687 147.171875 95.71875 C188.8382118 96.87196991 228.92542965 80.82433369 259.54296875 52.99609375 C273.32227847 39.94201085 283.67732296 25.46923254 292.90820312 8.96630859 C294.77159796 5.68039752 295.97449198 3.68757826 299.16796875 1.55859375 C303.06534115 1.05024083 304.67353601 1.22897192 307.98046875 3.43359375 C310.45784012 5.84018309 311.06446957 6.75948377 311.50390625 10.15234375 C311.04301912 14.82552484 309.12841578 18.04294738 306.79296875 22.05859375 C306.11729858 23.24291992 306.11729858 23.24291992 305.42797852 24.45117188 C299.36130512 34.90360829 292.5010899 44.48217771 284.2421875 53.33203125 C282.35472707 55.35811871 280.57176164 57.4375628 278.79296875 59.55859375 C250.93229235 91.20983836 208.50771966 109.17663466 167.16796875 113.55859375 C162.14302871 113.83831208 157.13746599 113.8932751 152.10546875 113.87109375 C151.09625366 113.86786102 151.09625366 113.86786102 150.06665039 113.86456299 C101.65841838 113.61746562 57.15318172 94.43393117 22.90673828 60.33642578 C11.35368845 48.52382976 2.33407678 35.27179493 -5.89453125 20.99609375 C-6.27697998 20.34141113 -6.65942871 19.68672852 -7.0534668 19.01220703 C-9.18747816 15.21046358 -10.55451159 11.92952838 -10.83203125 7.55859375 C-8.16598999 1.97260254 -6.21083774 0.37241 0 0 Z " fill="#FAA719" transform="translate(348.83203125,564.44140625)"/>
<path d="M0 0 C3.41659491 -0.05816623 6.83306205 -0.09365195 10.25 -0.125 C11.21808594 -0.14175781 12.18617188 -0.15851562 13.18359375 -0.17578125 C14.11816406 -0.18222656 15.05273438 -0.18867187 16.015625 -0.1953125 C16.87446289 -0.20578613 17.73330078 -0.21625977 18.61816406 -0.22705078 C21.21428659 0.02042707 22.7936476 0.63274301 25 2 C26.952156 4.60287467 27.02170665 5.78727486 26.6875 9.0625 C26 12 26 12 25 15 C25.474375 15.5775 25.94875 16.155 26.4375 16.75 C28.70181736 20.010617 28.54507546 22.11633736 28 26 C25.95394593 28.88364444 24.39170592 30.74686391 20.80810547 31.39868164 C18.24545236 31.49230036 15.74970819 31.43573552 13.1875 31.3125 C10.155625 31.209375 7.12375 31.10625 4 31 C4 22.09 4 13.18 4 4 C2.68 4 1.36 4 0 4 C0 2.68 0 1.36 0 0 Z M9 4 C9 6.97 9 9.94 9 13 C10.60332791 13.08121924 12.20784026 13.13929134 13.8125 13.1875 C14.70582031 13.22230469 15.59914063 13.25710938 16.51953125 13.29296875 C19.04137643 13.20180807 19.04137643 13.20180807 20.8359375 11.65234375 C22.27660963 9.97744306 22.27660963 9.97744306 21.8125 7.375 C21.25355766 4.83447997 21.25355766 4.83447997 19 4 C17.29297265 3.93003986 15.58331997 3.91559846 13.875 3.9375 C12.96492188 3.94652344 12.05484375 3.95554687 11.1171875 3.96484375 C10.06917969 3.98224609 10.06917969 3.98224609 9 4 Z M9 17 C9 20.3 9 23.6 9 27 C10.95803507 27.05389087 12.91648909 27.09274217 14.875 27.125 C15.96554687 27.14820313 17.05609375 27.17140625 18.1796875 27.1953125 C21.1371051 27.30060534 21.1371051 27.30060534 23 25 C23.50014953 22.54258463 23.50014953 22.54258463 23 20 C20.80214362 17.86291384 19.49044646 17.05573255 16.421875 16.70703125 C15.09929687 16.75923828 15.09929687 16.75923828 13.75 16.8125 C11.39875 16.9053125 11.39875 16.9053125 9 17 Z " fill="#000000" transform="translate(407,515)"/>
<path d="M0 0 C3.22899426 -0.0875127 6.45768116 -0.14056146 9.6875 -0.1875 C11.05551758 -0.22520508 11.05551758 -0.22520508 12.45117188 -0.26367188 C21.00895523 -0.35702951 21.00895523 -0.35702951 25 3 C26.72617094 6.45234188 26.50110436 10.22544766 26 14 C24 17.0625 24 17.0625 22 19 C22.44472656 19.68707031 22.88945313 20.37414062 23.34765625 21.08203125 C24.19650391 22.43361328 24.19650391 22.43361328 25.0625 23.8125 C25.91521484 25.15248047 25.91521484 25.15248047 26.78515625 26.51953125 C28 29 28 29 27 32 C24.16905053 31.64996937 23.19401662 31.23218382 21.33203125 29.00390625 C20.57986328 27.79541016 20.57986328 27.79541016 19.8125 26.5625 C19.30332031 25.75941406 18.79414063 24.95632813 18.26953125 24.12890625 C17 22 17 22 16 20 C14.10466658 19.53476937 14.10466658 19.53476937 11.9375 19.375 C10.638125 19.25125 9.33875 19.1275 8 19 C8 23.29 8 27.58 8 32 C6.68 31.67 5.36 31.34 4 31 C4 22.09 4 13.18 4 4 C2.68 4 1.36 4 0 4 C0 2.68 0 1.36 0 0 Z M8 4 C8 7.63 8 11.26 8 15 C14.69207708 15.59885364 14.69207708 15.59885364 20.6875 13.3125 C22.21595241 11.06268007 22.21595241 11.06268007 22 8.375 C21.22480822 5.91017474 21.22480822 5.91017474 19.234375 4.859375 C15.49176334 3.41990898 11.97932283 3.88296109 8 4 Z " fill="#000000" transform="translate(491,515)"/>
<path d="M0 0 C1.32 0.33 2.64 0.66 4 1 C4.33 3.97 4.66 6.94 5 10 C5.66 9.67 6.32 9.34 7 9 C14.21726041 8.41796287 14.21726041 8.41796287 17.4375 10.8125 C20.23744722 14.73242611 20.1088854 18.00257475 20.0625 22.6875 C20.05347656 23.86699219 20.04445313 25.04648437 20.03515625 26.26171875 C20.02355469 27.16535156 20.01195312 28.06898438 20 29 C20.99 29 21.98 29 23 29 C22.67 30.32 22.34 31.64 22 33 C19.625 33.1875 19.625 33.1875 17 33 C14.51955685 29.27933528 14.55618827 26.13459526 14.375 21.8125 C14.33632813 21.06291016 14.29765625 20.31332031 14.2578125 19.54101562 C14.16371784 17.69440801 14.08077681 15.8472381 14 14 C9.2102679 13.76571687 9.2102679 13.76571687 5 16 C4.61615491 18.93597539 4.396157 21.68027373 4.3125 24.625 C4.27833984 25.42679688 4.24417969 26.22859375 4.20898438 27.0546875 C4.12643122 29.03596318 4.06154084 31.01796037 4 33 C2.68 32.67 1.36 32.34 0 32 C0 21.44 0 10.88 0 0 Z " fill="#000000" transform="translate(570,514)"/>
<path d="M0 0 C2.125 1.9375 2.125 1.9375 3.1875 5.375 C3.125 8.9375 3.125 8.9375 1.51171875 11.14453125 C-1.56491382 13.45578223 -3.32300823 13.35280399 -7.125 13.1875 C-8.20265625 13.15140625 -9.2803125 13.1153125 -10.390625 13.078125 C-11.62039063 13.00851562 -11.62039063 13.00851562 -12.875 12.9375 C-11.5660428 16.05947478 -11.5660428 16.05947478 -8.875 17.9375 C-5.03911738 18.10798367 -1.6098373 17.81628525 2.125 16.9375 C1.795 18.5875 1.465 20.2375 1.125 21.9375 C-1.64552181 22.86100727 -3.44188758 23.10079585 -6.3125 23.125 C-7.07433594 23.13917969 -7.83617187 23.15335938 -8.62109375 23.16796875 C-11.16667024 22.90767583 -12.71743961 22.30041288 -14.875 20.9375 C-17.88363452 16.42454823 -18.83535894 12.23530424 -17.875 6.9375 C-16.25109951 3.80569191 -14.87233974 1.69410256 -12.0625 -0.4375 C-7.78008093 -1.66104831 -4.16768524 -1.5402315 0 0 Z M-12.875 6.9375 C-12.875 7.5975 -12.875 8.2575 -12.875 8.9375 C-8.09737362 9.95437046 -8.09737362 9.95437046 -3.4375 9 C-2.921875 8.649375 -2.40625 8.29875 -1.875 7.9375 C-2.37256092 5.18108584 -2.37256092 5.18108584 -3.875 2.9375 C-8.37957255 2.32877398 -10.08334082 3.42207733 -12.875 6.9375 Z " fill="#000000" transform="translate(485.875,524.0625)"/>
<path d="M0 0 C1.32 0.33 2.64 0.66 4 1 C4.06058594 2.13179687 4.12117187 3.26359375 4.18359375 4.4296875 C4.26799917 5.91147145 4.35264717 7.3932416 4.4375 8.875 C4.47681641 9.62136719 4.51613281 10.36773438 4.55664062 11.13671875 C4.71573624 15.19986864 4.71573624 15.19986864 6 19 C10.34184202 18.81535634 10.34184202 18.81535634 14 17 C14.23701239 14.14122091 14.42219182 11.30116703 14.5625 8.4375 C14.60568359 7.63119141 14.64886719 6.82488281 14.69335938 5.99414062 C14.79975262 3.99631195 14.90040888 1.9981793 15 0 C16.32 0.33 17.64 0.66 19 1 C19.33 6.94 19.66 12.88 20 19 C20.99 19.33 21.98 19.66 23 20 C22.67 21.32 22.34 22.64 22 24 C18.95613276 24.08226668 16.92824652 23.97608217 14 23 C13.34 23.33 12.68 23.66 12 24 C4.92745193 24.57036678 4.92745193 24.57036678 1.7578125 22.62109375 C-0.98466032 18.53176206 -0.4247828 14.54980469 -0.25 9.75 C-0.23195313 8.81414063 -0.21390625 7.87828125 -0.1953125 6.9140625 C-0.14825673 4.60832985 -0.08253713 2.30469055 0 0 Z " fill="#000000" transform="translate(523,523)"/>
<path d="M0 0 C0.99 0.66 1.98 1.32 3 2 C3 3.32 3 4.64 3 6 C-0.63 5.67 -4.26 5.34 -8 5 C-8.33 5.99 -8.66 6.98 -9 8 C-8.31292969 8.18175781 -7.62585938 8.36351562 -6.91796875 8.55078125 C-6.01691406 8.80214844 -5.11585938 9.05351563 -4.1875 9.3125 C-3.29417969 9.55613281 -2.40085937 9.79976562 -1.48046875 10.05078125 C1.09667085 11.03699373 2.34381844 11.81513507 4 14 C4.64390244 19.15121951 4.64390244 19.15121951 2.625 21.8125 C-1.51143897 24.83528232 -6.04522456 24.61535114 -11 24 C-13.625 22 -13.625 22 -15 20 C-14.67 19.34 -14.34 18.68 -14 18 C-13.319375 18.165 -12.63875 18.33 -11.9375 18.5 C-8.5835178 19.07089059 -5.39610195 19.06659023 -2 19 C-1.67 18.01 -1.34 17.02 -1 16 C-1.68707031 15.81824219 -2.37414062 15.63648438 -3.08203125 15.44921875 C-3.98308594 15.19785156 -4.88414062 14.94648437 -5.8125 14.6875 C-6.70582031 14.44386719 -7.59914063 14.20023438 -8.51953125 13.94921875 C-11.09671714 12.96298856 -12.3352904 12.17651353 -14 10 C-14.5 7.0625 -14.5 7.0625 -14 4 C-10.21532542 -0.63927851 -5.61902797 -0.90493709 0 0 Z " fill="#000000" transform="translate(562,523)"/>
<path d="M0 0 C1.32 0 2.64 0 4 0 C4 2.31 4 4.62 4 7 C6.64 7 9.28 7 12 7 C11.67 8.32 11.34 9.64 11 11 C8.69 11 6.38 11 4 11 C4.33 15.62 4.66 20.24 5 25 C8.465 24.505 8.465 24.505 12 24 C12.33 25.32 12.66 26.64 13 28 C10.08758312 29.94161125 9.29379699 30.33144972 6 30.4375 C5.319375 30.47746094 4.63875 30.51742187 3.9375 30.55859375 C2 30 2 30 0.26171875 27.9296875 C-1.29464755 24.31583387 -1.29742547 21.60817498 -1.1875 17.6875 C-1.16042969 16.43324219 -1.13335937 15.17898438 -1.10546875 13.88671875 C-1.07066406 12.93410156 -1.03585937 11.98148438 -1 11 C-2.32 11 -3.64 11 -5 11 C-5 9.68 -5 8.36 -5 7 C-3.68 7 -2.36 7 -1 7 C-1.020625 6.030625 -1.04125 5.06125 -1.0625 4.0625 C-1 1 -1 1 0 0 Z " fill="#000000" transform="translate(452,517)"/>
<path d="M0 0 C1.98 0.495 1.98 0.495 4 1 C4 7.27 4 13.54 4 20 C5.32 20 6.64 20 8 20 C7.67 21.32 7.34 22.64 7 24 C4.69 23.67 2.38 23.34 0 23 C-0.8040612 20.16821942 -1.12824903 17.64753417 -1.1328125 14.70703125 C-1.13410156 13.91232422 -1.13539063 13.11761719 -1.13671875 12.29882812 C-1.13285156 11.47833984 -1.12898438 10.65785156 -1.125 9.8125 C-1.12886719 8.98041016 -1.13273437 8.14832031 -1.13671875 7.29101562 C-1.12667092 1.12667092 -1.12667092 1.12667092 0 0 Z " fill="#000000" transform="translate(439,523)"/>
<path d="M0 0 C1.65 0.33 3.3 0.66 5 1 C4.6875 2.9375 4.6875 2.9375 4 5 C3.01 5.33 2.02 5.66 1 6 C0.34 5.67 -0.32 5.34 -1 5 C-0.67 3.35 -0.34 1.7 0 0 Z " fill="#000000" transform="translate(439,514)"/>
</svg>
